<?xml version="1.0" encoding="UTF-8"?>
<svg xmlns="http://www.w3.org/2000/svg" xmlns:xlink="http://www.w3.org/1999/xlink" width="24px" height="24px" viewBox="0 0 24 24" version="1.1">
<g id="surface1">
<path style="fill:none;stroke-width:2;stroke-linecap:round;stroke-linejoin:round;stroke:rgb(0%,0%,0%);stroke-opacity:1;stroke-miterlimit:4;" d="M 13 9 L 15 15 L 17 9 M 10 15 C 9.066406 15 8.601562 15 8.234375 14.847656 C 7.746094 14.644531 7.355469 14.253906 7.152344 13.765625 C 7 13.398438 7 12.933594 7 12 C 7 11.066406 7 10.601562 7.152344 10.234375 C 7.355469 9.746094 7.746094 9.355469 8.234375 9.152344 C 8.601562 9 9.066406 9 10 9 M 7.199219 20 L 16.800781 20 C 17.921875 20 18.480469 20 18.90625 19.78125 C 19.285156 19.589844 19.589844 19.285156 19.78125 18.90625 C 20 18.480469 20 17.921875 20 16.800781 L 20 7.199219 C 20 6.078125 20 5.519531 19.78125 5.09375 C 19.589844 4.714844 19.285156 4.410156 18.90625 4.21875 C 18.480469 4 17.921875 4 16.800781 4 L 7.199219 4 C 6.078125 4 5.519531 4 5.09375 4.21875 C 4.714844 4.410156 4.410156 4.714844 4.21875 5.09375 C 4 5.519531 4 6.078125 4 7.199219 L 4 16.800781 C 4 17.921875 4 18.480469 4.21875 18.90625 C 4.410156 19.285156 4.714844 19.589844 5.09375 19.78125 C 5.519531 20 6.078125 20 7.199219 20 Z M 7.199219 20 "/>
</g>
</svg>
